<svg version="1.1" xmlns="http://www.w3.org/2000/svg" xmlns:xlink="http://www.w3.org/1999/xlink" width="48" height="48"><defs><linearGradient x1="13.39559" y1="9.1503" x2="43.08968" y2="47.33498" gradientUnits="userSpaceOnUse" id="color-1"><stop offset="0.31" stop-color="#000000" stop-opacity="0.38"></stop><stop offset="1" stop-color="#000000" stop-opacity="0"></stop></linearGradient><linearGradient x1="33.625" y1="14.375" x2="43" y2="23.75" gradientUnits="userSpaceOnUse" id="color-2"><stop offset="0" stop-color="#000000" stop-opacity="0.38"></stop><stop offset="1" stop-color="#000000" stop-opacity="0"></stop></linearGradient><filter id="dropshadow-base"><feColorMatrix type="matrix" values="0 0 0 0 0  0 0 0 0 0  0 0 0 0 0  0 0 0 .8 0"></feColorMatrix> <feOffset dx="0" dy="1"></feOffset> <feGaussianBlur stdDeviation="1"></feGaussianBlur> <feComposite in="SourceGraphic"></feComposite></filter><filter id="dropshadow-banner" x="-10%" y="-10%" width="120%" height="130%"><feColorMatrix type="matrix" values="0 0 0 0 0  0 0 0 0 0  0 0 0 0 0  0 0 0 .4 0"></feColorMatrix> <feOffset dx="0" dy="1"></feOffset> <feGaussianBlur stdDeviation="0.5"></feGaussianBlur> <feComposite in="SourceGraphic"></feComposite></filter></defs><g fill="none" fill-rule="nonzero" stroke="none" stroke-width="none" stroke-linecap="butt" stroke-linejoin="miter" stroke-miterlimit="10" stroke-dasharray="" stroke-dashoffset="0" font-family="none" font-weight="none" font-size="none" text-anchor="none" style="mix-blend-mode: normal"><path d="M7,43c-1.10457,0 -2,-0.89543 -2,-2v-34c0,-1.10457 0.89543,-2 2,-2l26,0l10,10v26c0,1.10457 -0.89543,2 -2,2z" id="base 1 5 1 1 1 2" fill="#43a82d" stroke-width="1"></path><path d="M37.78043,23.99822c0,2.07453 -0.99433,3.91769 -2.53012,5.07655l7.21147,7.21147c0.24732,0.24732 0.43496,0.556 0.53822,0.90077v1.36473l-0.54776,3.82341c-0.36451,0.38482 -0.88035,0.62486 -1.45224,0.62486h-15.84722l-11.75719,-11.75719l1.11699,-1.13113c0.28985,-0.28278 0.68574,-0.46659 1.12406,-0.46659c0.11313,0 0.22624,0.01414 0.33228,0.03534l4.84268,1.01095v-8.30336l-2.37995,-2.37995c-1.1497,-1.1497 -1.86178,-2.73956 -1.86178,-4.49513c0,-3.51359 2.84905,-6.36264 6.36264,-6.36264c1.75679,0 3.34745,0.71226 4.49891,1.86372l8.48528,8.48528c1.15146,1.15146 1.86372,2.74212 1.86372,4.49891zM33.53864,32.48175l-4.24176,-4.24176l0,10.60971h2.18981c1.06752,0 1.88052,-0.78473 2.02897,-1.80982l0.65302,-4.55813zM24.45421,38.16571c-0.10604,-0.02121 -0.21915,-0.03534 -0.33228,-0.03534c-0.43832,0 -0.83421,0.18381 -1.12406,0.46659l-0.24958,0.25274l4.9824,0z" fill="url(#color-1)" stroke-width="1"></path><path d="M19.39769,20.801v-5.28806c0,-1.95121 1.58359,-3.5348 3.5348,-3.5348c1.95121,0 3.5348,1.58359 3.5348,3.5348v5.28806c1.70377,-1.13821 2.82784,-3.08235 2.82784,-5.28806c0,-3.51359 -2.84905,-6.36264 -6.36264,-6.36264c-3.51359,0 -6.36264,2.84905 -6.36264,6.36264c0,2.20572 1.12407,4.14986 2.82784,5.28806zM33.3036,27.34746l-6.4192,-3.19546c-0.24037,-0.09897 -0.49487,-0.15553 -0.77059,-0.15553h-1.06044v-8.48352c0,-1.17355 -0.94733,-2.12088 -2.12088,-2.12088c-1.17355,0 -2.12088,0.94733 -2.12088,2.12088v15.17844l-4.84268,-1.01095c-0.10604,-0.02121 -0.21916,-0.03535 -0.33227,-0.03535c-0.43832,0 -0.83421,0.18381 -1.12407,0.46659l-1.117,1.13114l6.98477,6.98477c0.38883,0.38176 0.91905,0.62213 1.49876,0.62213h9.60759c1.06751,0 1.88051,-0.78473 2.02898,-1.80982l1.06751,-7.45136c0.01414,-0.09897 0.02121,-0.19088 0.02121,-0.28985c-0.00707,-0.87663 -0.54436,-1.63308 -1.30081,-1.95121z" fill="none" stroke-width="0"></path><path d="M16.56985,15.51294c0,-3.51359 2.84905,-6.36264 6.36264,-6.36264c3.51359,0 6.36264,2.84905 6.36264,6.36264c0,2.20572 -1.12407,4.14986 -2.82784,5.28806v-5.28806c0,-1.95121 -1.58359,-3.5348 -3.5348,-3.5348c-1.95121,0 -3.5348,1.58359 -3.5348,3.5348v5.28806c-1.70377,-1.13821 -2.82784,-3.08235 -2.82784,-5.28806zM34.6044,29.29867c0,0.09897 -0.00707,0.19088 -0.02121,0.28985l-1.06751,7.45136c-0.14846,1.02509 -0.96147,1.80982 -2.02898,1.80982h-9.60759c-0.57971,0 -1.10993,-0.24037 -1.49876,-0.62213l-6.98477,-6.98477l1.117,-1.13114c0.28985,-0.28278 0.68575,-0.46659 1.12407,-0.46659c0.11311,0 0.22623,0.01414 0.33227,0.03535l4.84268,1.01095v-15.17844c0,-1.17355 0.94733,-2.12088 2.12088,-2.12088c1.17355,0 2.12088,0.94733 2.12088,2.12088v8.48352h1.06044c0.27571,0 0.53022,0.05656 0.77059,0.15553l6.4192,3.19546c0.75645,0.31813 1.29374,1.07458 1.30081,1.95121z" fill="#ffffff" stroke-width="0"></path><path d="M2,24c0,-12.15026 9.84974,-22 22,-22c12.15026,0 22,9.84974 22,22c0,12.15026 -9.84974,22 -22,22c-12.15026,0 -22,-9.84974 -22,-22z" id="base 1 1 1" fill="none" stroke-width="1"></path><g fill="#000000" stroke-width="1" font-family="Roboto, sans-serif" font-weight="400" font-size="14" text-anchor="start"></g><rect x="2" y="2" width="44" height="22" fill="none" stroke-width="1"></rect><path d="M2,24v-22h44v22z" fill="none" stroke-width="1"></path><path d="M2,24v-22h44v22z" fill="none" stroke-width="1"></path><path d="M2,24v-22h44v22z" fill="none" stroke-width="1"></path><path d="M2,24v-22h44v22z" fill="none" stroke-width="1"></path><path d="M33.625,14.375l9.375,0.625v8.75z" fill="url(#color-2)" stroke-width="1"></path><path d="M33,5l10,10h-8c-1,0 -2,-1 -2,-2z" fill="#61c64b" stroke-width="1"></path></g></svg>